<svg xmlns="http://www.w3.org/2000/svg" version="1.1" xmlns:xlink="http://www.w3.org/1999/xlink" xmlns:svgjs="http://svgjs.dev/svgjs" width="60" height="50" viewBox="0 0 2000 2000"><g transform="matrix(1,0,0,1,-0.9999999999998863,-0.9999999999998863)"><svg viewBox="0 0 280 280" data-background-color="#efefef" preserveAspectRatio="xMidYMid meet" height="2000" width="2000" xmlns="http://www.w3.org/2000/svg" xmlns:xlink="http://www.w3.org/1999/xlink"><g id="tight-bounds" transform="matrix(1,0,0,1,0.13999999999998636,0.13999999999998636)"><svg viewBox="0 0 279.72 279.72" height="279.72" width="279.72"><g><svg viewBox="0 0 279.72 279.72" height="279.72" width="279.72"><g><svg viewBox="0 0 279.72 279.72" height="279.72" width="279.72"><g id="textblocktransform"><svg viewBox="0 0 279.72 279.72" height="279.72" width="279.72" id="textblock"><g><svg viewBox="0 0 279.72 279.72" height="279.72" width="279.72"><g transform="matrix(1,0,0,1,57.446704652707865,57.446704652707865)"><svg viewBox="0 0 164.8265906945843 164.8265906945843" height="164.8265906945843" width="164.8265906945843"><g id="icon-0"><circle r="82" cx="82.41329534729215" cy="82.41329534729215" fill="#f9744c" data-fill-palette-color="accent"></circle><svg xmlns="http://www.w3.org/2000/svg" xmlns:xlink="http://www.w3.org/1999/xlink" version="1.1" x="24.723988604187646" y="24.72398860418764" viewBox="8.975 9.968 80.06400000000001 80.064" style="enable-background:new 0 0 100 100;" xml:space="preserve" height="115.378613486209" width="115.378613486209" class="icon-jxe-0" data-fill-palette-color="quaternary" id="jxe-0"><path d="M26.191 61.095H70.669A1 1 0 0 0 70.669 59.095H68.834V54.526L71.115 56.818A1 1 0 0 0 72.53 56.821C72.921 56.431 72.923 55.798 72.533 55.406L68.834 51.689V49.74L71.115 52.033A1 1 0 1 0 72.533 50.621L68.834 46.904V44.955L71.115 47.247A1 1 0 0 0 72.53 47.25C72.921 46.86 72.923 46.227 72.533 45.835L68.543 41.826A1.003 1.003 0 0 0 67.125 41.826L63.135 45.835A1 1 0 0 0 63.138 47.25 1 1 0 0 0 64.553 47.247L66.834 44.955V46.904L63.135 50.621A1.001 1.001 0 0 0 64.553 52.033L66.834 49.74V51.689L63.135 55.406A1 1 0 0 0 63.138 56.821 1 1 0 0 0 64.553 56.818L66.834 54.526V59.095H61.95L45.339 29.496C44.985 28.865 43.949 28.865 43.595 29.496L26.984 59.095H26.191A1 1 0 0 0 26.191 61.095M44.467 32.029L49.322 40.681 48.376 41.828 47.189 40.389A0.998 0.998 0 0 0 45.647 40.389L44.464 41.826 43.281 40.389C42.901 39.928 42.117 39.928 41.737 40.389L40.554 41.826 39.612 40.682zM38.561 42.552L39.781 44.034C40.161 44.495 40.945 44.495 41.325 44.034L42.508 42.597 43.691 44.034C44.071 44.495 44.855 44.495 45.235 44.034L46.419 42.596 47.606 44.034A1 1 0 0 0 49.148 44.034L50.372 42.55 59.657 59.094H29.277z" fill="#efefef" data-fill-palette-color="quaternary"></path><path d="M60.074 40.217A7.06 7.06 0 0 0 66.643 35.667 1 1 0 0 0 65.354 34.378 5 5 0 0 1 63.584 34.706 5.03 5.03 0 0 1 58.558 29.68C58.558 29.082 58.668 28.487 58.886 27.91A1 1 0 0 0 57.597 26.621 7.06 7.06 0 0 0 53.047 33.19C53.048 37.065 56.2 40.217 60.074 40.217M56.56 29.609V29.679C56.56 33.576 59.731 36.751 63.656 36.704A5.04 5.04 0 0 1 60.075 38.216 5.03 5.03 0 0 1 55.049 33.19 5.03 5.03 0 0 1 56.56 29.609" fill="#efefef" data-fill-palette-color="quaternary"></path><path d="M45.418 88.545C46.376 89.504 47.651 90.032 49.007 90.032S51.637 89.504 52.596 88.545L87.552 53.589C88.511 52.631 89.039 51.356 89.039 50S88.511 47.37 87.552 46.411L52.596 11.455C51.638 10.496 50.363 9.968 49.007 9.968S46.377 10.496 45.418 11.455L10.462 46.411C9.503 47.37 8.975 48.645 8.975 50S9.503 52.63 10.462 53.589zM11.876 47.825L46.832 12.869C47.432 12.269 48.219 11.97 49.007 11.97S50.582 12.27 51.182 12.869L86.138 47.825A3.08 3.08 0 0 1 86.138 52.175L51.182 87.131A3.08 3.08 0 0 1 46.832 87.131L11.876 52.175A3.08 3.08 0 0 1 11.876 47.825" fill="#efefef" data-fill-palette-color="quaternary"></path></svg></g></svg></g><g id="text-0"><path d="M8.935 95.37l-2.736 7.839-3.241-1.131 6.668-19.112 3.242 1.131-2.732 7.83 23.662 8.255-1.202 3.444z" fill="#d94e28" data-fill-palette-color="primary"></path><path d="M53.259 35.477l2.402 2.452c-0.902 0.884-1.619 1.899-2.149 3.047-0.535 1.152-0.844 2.647-0.925 4.486v0l10.143 10.356-2.452 2.402-14.514-14.817 2.336-2.289 2.346 2.395c0.04-1.997 0.287-3.609 0.741-4.833 0.459-1.23 1.15-2.296 2.072-3.199z" fill="#d94e28" data-fill-palette-color="primary"></path><path d="M100.591 0l1.265 3.637-3.647 1.268-1.264-3.637zM103.32 8.499l6.812 19.591-3.243 1.127-6.812-19.59z" fill="#d94e28" data-fill-palette-color="primary"></path><path d="M164.8 25.764v0c-1.545-0.232-3.099-0.788-4.663-1.667v0l-1.404 9.359-3.395-0.509 4.4-29.337 3.234 0.485-0.435 2.901c1.452-1.025 2.739-1.708 3.861-2.048 1.129-0.339 2.244-0.426 3.345-0.26v0c2.183 0.327 3.738 1.405 4.666 3.234 0.927 1.835 1.164 4.261 0.711 7.276v0l-0.359 2.398c-0.431 2.875-1.5 5.059-3.208 6.554-1.708 1.495-3.958 2.033-6.753 1.614zM168.44 7.748v0c-0.799-0.12-1.66-0.036-2.582 0.251-0.915 0.288-2.12 0.97-3.614 2.044v0l-1.64 10.941c0.753 0.477 1.49 0.848 2.212 1.114 0.722 0.266 1.443 0.453 2.162 0.561v0c1.874 0.281 3.313-0.09 4.318-1.113 0.998-1.025 1.645-2.518 1.939-4.479v0l0.359-2.398c0.323-2.156 0.222-3.795-0.303-4.918-0.518-1.128-1.468-1.796-2.851-2.003z" fill="#d94e28" data-fill-palette-color="primary"></path><path d="M220.216 52.114v0c-1.216-0.98-2.277-2.246-3.182-3.796v0l-5.94 7.368-2.672-2.154 18.619-23.095 2.545 2.052-1.841 2.284c1.771-0.151 3.226-0.09 4.366 0.184 1.146 0.278 2.152 0.766 3.019 1.465v0c1.718 1.385 2.516 3.101 2.393 5.148-0.128 2.052-1.148 4.265-3.062 6.639v0l-1.522 1.888c-1.824 2.263-3.851 3.608-6.08 4.035-2.229 0.428-4.443-0.245-6.643-2.018zM232.46 38.404v0c-0.629-0.507-1.414-0.87-2.356-1.087-0.936-0.214-2.319-0.234-4.15-0.062v0l-6.944 8.613c0.409 0.792 0.857 1.485 1.346 2.08 0.489 0.595 1.016 1.12 1.582 1.576v0c1.475 1.189 2.905 1.596 4.289 1.22 1.379-0.38 2.691-1.342 3.936-2.885v0l1.522-1.888c1.368-1.697 2.109-3.163 2.223-4.397 0.123-1.235-0.359-2.292-1.448-3.17z" fill="#d94e28" data-fill-palette-color="primary"></path><path d="M276.762 101.407l-24.224 0.52c-2.665 0.057-4.771-0.318-6.319-1.126-1.539-0.804-2.718-2.29-3.538-4.456v0l3.172-1.201c0.36 0.873 0.766 1.591 1.218 2.153 0.452 0.562 1.096 0.976 1.93 1.242 0.828 0.268 1.959 0.399 3.394 0.392v0l1.133 0.029 16.869-14.369 1.248 3.296-8.212 6.823-5.283 4.287 6.769-0.362 10.642-0.401z" fill="#d94e28" data-fill-palette-color="primary"></path><path d="M12.296 141.902c0-1.878 1.522-3.4 3.4-3.4 1.878 0 3.4 1.522 3.399 3.4 0 1.878-1.522 3.4-3.399 3.399-1.878 0-3.4-1.522-3.4-3.399z" fill="#d94e28" data-fill-palette-color="primary"></path><path d="M268.762 141.902c0-1.878 1.522-3.4 3.4-3.4 1.878 0 3.4 1.522 3.399 3.4 0 1.878-1.522 3.4-3.399 3.399-1.878 0-3.4-1.522-3.4-3.399z" fill="#d94e28" data-fill-palette-color="primary"></path></g><g id="text-1"><path d="M17.333 180.998l2.088 6.915-1.911 0.577-2.71-8.972 16.062-4.851 2.639 8.738-1.931 0.583-2.018-6.68-5.032 1.52 1.803 5.968-1.941 0.586-1.802-5.968z" fill="#d94e28" data-fill-palette-color="primary"></path><path d="M23.105 201.469l-0.886-2.036 3.161-4.686-5.535-0.769-0.857-1.971 7.409 1.198 3.909-5.801 0.898 2.065-2.841 4.169 4.967 0.716 0.845 1.943-6.845-1.076z" fill="#d94e28" data-fill-palette-color="primary"></path><path d="M27.518 210.078v0c-0.45-0.806-0.753-1.731-0.907-2.773v0l-4.865 2.717-0.988-1.77 15.253-8.518 0.939 1.681-1.503 0.839c0.999 0.313 1.782 0.67 2.347 1.07 0.56 0.403 1 0.892 1.322 1.467v0c0.632 1.133 0.689 2.244 0.17 3.335-0.519 1.091-1.561 2.073-3.126 2.948v0l-1.254 0.7c-1.494 0.834-2.896 1.124-4.206 0.867-1.31-0.256-2.371-1.111-3.182-2.563zM37.218 205.279v0c-0.232-0.415-0.579-0.785-1.041-1.111-0.468-0.322-1.219-0.637-2.255-0.946v0l-5.692 3.179c0.048 0.518 0.14 0.995 0.275 1.433 0.138 0.428 0.312 0.829 0.52 1.203v0c0.546 0.978 1.238 1.514 2.076 1.607 0.835 0.102 1.762-0.132 2.782-0.702v0l1.254-0.7c1.121-0.626 1.847-1.261 2.179-1.906 0.335-0.654 0.302-1.339-0.098-2.057z" fill="#d94e28" data-fill-palette-color="primary"></path><path d="M35.903 217.447v0l12.61-8.667 1.143 1.663-12.535 8.614c-0.364 0.25-0.598 0.497-0.702 0.742-0.098 0.241-0.026 0.537 0.216 0.89v0l0.22 0.319-1.528 1.05-0.318-0.462c-0.615-0.896-0.806-1.683-0.573-2.362 0.228-0.676 0.717-1.271 1.467-1.787z" fill="#d94e28" data-fill-palette-color="primary"></path><path d="M50.023 229.024v0l-1.139 0.941c-1.345 1.112-2.688 1.641-4.028 1.587-1.346-0.05-2.549-0.716-3.61-1.999v0c-1.047-1.267-1.472-2.568-1.273-3.904 0.189-1.338 0.957-2.563 2.302-3.675v0l1.138-0.942c1.319-1.091 2.654-1.613 4.005-1.567 1.351 0.046 2.557 0.71 3.618 1.992v0c1.06 1.282 1.486 2.591 1.278 3.927-0.208 1.336-0.972 2.549-2.291 3.64zM47.547 228.348l1.138-0.941c0.9-0.744 1.44-1.535 1.621-2.372 0.18-0.827-0.051-1.628-0.691-2.403v0c-0.628-0.759-1.369-1.133-2.224-1.122-0.86 0.015-1.74 0.395-2.64 1.14v0l-1.139 0.941c-0.937 0.775-1.488 1.579-1.653 2.412-0.166 0.833 0.065 1.629 0.692 2.388v0c0.641 0.775 1.381 1.153 2.223 1.137 0.845-0.012 1.736-0.405 2.673-1.18z" fill="#d94e28" data-fill-palette-color="primary"></path><path d="M62.085 233.121l-1.419 1.435c-0.526-0.52-1.131-0.932-1.815-1.236-0.684-0.303-1.566-0.469-2.646-0.497v0l-6.003 6.07-1.441-1.425 8.588-8.685 1.369 1.353-1.389 1.406c1.181 0.003 2.135 0.134 2.862 0.394 0.727 0.26 1.358 0.655 1.894 1.185z" fill="#d94e28" data-fill-palette-color="primary"></path><path d="M64.801 248.324l-0.583 1.695c-0.801-0.19-1.533-0.464-2.197-0.823-0.659-0.363-1.23-0.743-1.714-1.138v0c-1.362-1.113-2.061-2.334-2.097-3.663-0.036-1.319 0.499-2.654 1.603-4.005v0l0.935-1.143c1.075-1.314 2.268-2.093 3.581-2.336 1.318-0.238 2.587 0.141 3.807 1.139v0c0.652 0.533 1.143 1.15 1.474 1.85 0.327 0.706 0.435 1.453 0.326 2.24-0.108 0.798-0.5 1.609-1.175 2.435v0c-0.439 0.536-1.016 1.086-1.731 1.65v0l-5.639-4.61-0.032 0.039c-0.791 0.967-1.186 1.864-1.185 2.689-0.009 0.826 0.434 1.605 1.327 2.336v0c0.405 0.331 0.893 0.646 1.463 0.946 0.58 0.299 1.192 0.532 1.837 0.699zM67.014 239.422v0c-0.736-0.602-1.489-0.818-2.259-0.65-0.764 0.173-1.52 0.674-2.267 1.502v0l4.282 3.502c0.222-0.196 0.416-0.397 0.584-0.602v0c0.585-0.715 0.815-1.404 0.69-2.067-0.124-0.663-0.468-1.225-1.03-1.685z" fill="#d94e28" data-fill-palette-color="primary"></path><path d="M78.701 258.09v0c0.896 0.513 1.699 0.716 2.411 0.607 0.709-0.118 1.28-0.554 1.712-1.308v0c0.361-0.63 0.497-1.257 0.408-1.88-0.093-0.617-0.45-1.256-1.072-1.918v0l-1.448-1.51c-0.895-0.951-1.408-1.907-1.539-2.867-0.134-0.954 0.077-1.917 0.634-2.889v0c0.425-0.742 0.958-1.33 1.597-1.762 0.63-0.43 1.372-0.638 2.226-0.626 0.86 0.015 1.817 0.325 2.872 0.93v0c0.642 0.368 1.261 0.825 1.857 1.369 0.605 0.542 1.161 1.178 1.667 1.907v0l-1.523 1.264c-0.511-0.692-1.002-1.263-1.473-1.713-0.47-0.45-0.956-0.818-1.456-1.105v0c-0.813-0.466-1.543-0.661-2.189-0.585-0.64 0.079-1.18 0.502-1.619 1.268v0c-0.321 0.56-0.439 1.114-0.355 1.663 0.084 0.549 0.442 1.169 1.072 1.859v0l1.438 1.506c1.8 1.885 2.091 3.891 0.872 6.018v0c-0.702 1.226-1.644 2.009-2.826 2.349-1.178 0.335-2.586 0.033-4.224-0.906v0c-0.672-0.385-1.337-0.876-1.997-1.474-0.657-0.588-1.28-1.29-1.87-2.105v0l1.481-1.252c0.558 0.774 1.1 1.406 1.627 1.894 0.526 0.489 1.098 0.911 1.717 1.266z" fill="#d94e28" data-fill-palette-color="primary"></path><path d="M96.841 256.857v0c-0.428-0.174-0.954-0.259-1.579-0.256-0.624 0.003-1.47 0.162-2.535 0.476v0l-3.317 8.164-1.878-0.763 4.597-11.316 1.784 0.724-0.64 1.577c1.085-0.344 1.993-0.521 2.723-0.533 0.73-0.011 1.401 0.107 2.011 0.356v0c0.717 0.291 1.245 0.697 1.584 1.215 0.339 0.519 0.501 1.131 0.486 1.836v0c1.128-0.377 2.079-0.57 2.852-0.579 0.777 0 1.483 0.13 2.119 0.388v0c1.007 0.409 1.643 1.052 1.909 1.93 0.266 0.878 0.152 1.927-0.344 3.148v0l-3.14 7.73-1.878-0.763 3.029-7.456c0.631-1.554 0.384-2.56-0.742-3.018v0c-0.428-0.174-0.957-0.261-1.588-0.26-0.631 0-1.479 0.158-2.545 0.473v0c-0.013 0.068-0.035 0.14-0.066 0.215-0.031 0.076-0.061 0.151-0.092 0.227v0l-3.14 7.729-1.878-0.763 3.029-7.456c0.631-1.554 0.378-2.563-0.761-3.025z" fill="#d94e28" data-fill-palette-color="primary"></path><path d="M118.91 274.852l-0.367-0.088c-0.733-0.174-1.281-0.483-1.644-0.925-0.363-0.442-0.571-0.932-0.625-1.468v0c-0.95 0.5-1.779 0.816-2.487 0.948-0.707 0.125-1.381 0.111-2.022-0.041v0c-1.037-0.247-1.724-0.766-2.058-1.558-0.337-0.785-0.389-1.667-0.157-2.645v0c0.156-0.654 0.414-1.211 0.775-1.669 0.359-0.452 0.864-0.758 1.516-0.917 0.646-0.161 1.457-0.125 2.435 0.108v0c0.429 0.102 0.896 0.241 1.399 0.417 0.495 0.18 0.997 0.373 1.506 0.578v0l0.382-1.606c0.214-0.899 0.165-1.559-0.146-1.982-0.319-0.418-0.856-0.717-1.609-0.896v0c-1.024-0.244-2.233-0.238-3.627 0.017v0l-0.238-1.774c0.814-0.162 1.579-0.253 2.295-0.271 0.715-0.011 1.416 0.065 2.103 0.228v0c1.123 0.267 1.936 0.652 2.437 1.156 0.507 0.511 0.8 1.098 0.88 1.759 0.08 0.661 0.034 1.352-0.137 2.072v0l-1.224 5.144c-0.086 0.363-0.087 0.688-0.001 0.973 0.081 0.277 0.339 0.468 0.775 0.572v0l0.268 0.064zM111.498 269.517v0c-0.129 0.542-0.105 1.012 0.073 1.41 0.178 0.398 0.504 0.654 0.979 0.768v0c0.416 0.099 0.928 0.088 1.537-0.033 0.6-0.116 1.389-0.455 2.368-1.018v0l0.361-1.516c-1.048-0.438-1.988-0.756-2.821-0.954v0c-0.733-0.174-1.298-0.148-1.694 0.079-0.389 0.228-0.657 0.65-0.803 1.264z" fill="#d94e28" data-fill-palette-color="primary"></path><path d="M131.858 264.056l-0.288 1.997c-0.733-0.106-1.464-0.077-2.194 0.085-0.73 0.162-1.538 0.554-2.423 1.174v0l-1.218 8.45-2.007-0.289 1.742-12.09 1.906 0.275-0.282 1.956c0.952-0.7 1.797-1.161 2.536-1.385 0.739-0.223 1.481-0.281 2.228-0.173z" fill="#d94e28" data-fill-palette-color="primary"></path><path d="M140.91 274.892l0.522 1.68c-0.947 0.412-1.936 0.591-2.966 0.536v0c-0.888-0.047-1.574-0.264-2.057-0.65-0.483-0.386-0.81-0.89-0.981-1.511-0.171-0.621-0.237-1.301-0.197-2.04v0l0.353-6.653-2.126-0.113 0.094-1.771 2.127 0.114 0.181-3.408 2.014 0.107-0.181 3.408 3.998 0.212-0.094 1.77-3.998-0.212-0.35 6.582c-0.045 0.855 0.069 1.449 0.344 1.783 0.268 0.341 0.706 0.527 1.316 0.559v0c0.292 0.015 0.602-0.005 0.932-0.062 0.323-0.058 0.679-0.168 1.068-0.331z" fill="#d94e28" data-fill-palette-color="primary"></path><path d="M154.203 274.271l0.68 1.658c-0.727 0.386-1.458 0.663-2.193 0.831-0.735 0.162-1.415 0.254-2.039 0.276v0c-1.758 0.062-3.089-0.394-3.993-1.367-0.897-0.967-1.377-2.323-1.438-4.068v0l-0.052-1.476c-0.06-1.697 0.323-3.069 1.149-4.118 0.833-1.049 2.037-1.601 3.611-1.657v0c0.842-0.03 1.618 0.109 2.329 0.418 0.711 0.315 1.286 0.804 1.723 1.468 0.445 0.671 0.686 1.539 0.724 2.604v0c0.024 0.692-0.046 1.486-0.211 2.383v0l-7.28 0.257 0.002 0.051c0.044 1.249 0.339 2.183 0.884 2.802 0.539 0.627 1.385 0.92 2.539 0.879v0c0.523-0.018 1.097-0.103 1.724-0.254 0.633-0.158 1.247-0.387 1.841-0.687zM149.991 266.122v0c-0.95 0.034-1.659 0.368-2.126 1.003-0.46 0.635-0.698 1.509-0.713 2.624v0l5.529-0.195c0.037-0.294 0.051-0.573 0.041-0.837v0c-0.033-0.923-0.314-1.593-0.845-2.009-0.531-0.416-1.16-0.611-1.886-0.586z" fill="#d94e28" data-fill-palette-color="primary"></path><path d="M165.204 262.786l0.264 1.999c-0.734 0.097-1.43 0.322-2.089 0.677-0.659 0.354-1.33 0.95-2.015 1.786v0l1.116 8.464-2.01 0.265-1.597-12.11 1.909-0.252 0.259 1.96c0.727-0.932 1.415-1.605 2.066-2.02 0.651-0.415 1.35-0.671 2.097-0.77z" fill="#d94e28" data-fill-palette-color="primary"></path><path d="M168.53 272.473l1.991-0.382 0.088 0.46c0.225 1.174 0.294 2.322 0.206 3.446-0.082 1.122-0.386 2.363-0.913 3.723v0l-1.451-0.479c0.258-0.852 0.416-1.615 0.473-2.29 0.065-0.669 0.062-1.353-0.011-2.052-0.079-0.697-0.206-1.506-0.383-2.426z" fill="#d94e28" data-fill-palette-color="primary"></path><path d="M185.546 270.291l-1.99 0.669-5.342-15.906 2.125-0.713c2.104 1.55 4.095 3.149 5.974 4.796 1.881 1.654 3.72 3.418 5.517 5.293v0l-2.284-6.003-2.167-6.451 1.989-0.668 5.342 15.906-2.124 0.713c-1.86-1.912-3.731-3.751-5.615-5.518-1.892-1.772-3.869-3.458-5.933-5.058v0l2.325 6.441z" fill="#d94e28" data-fill-palette-color="primary"></path><path d="M206.731 253.714v0l0.66 1.322c0.779 1.562 0.99 2.99 0.633 4.283-0.354 1.3-1.275 2.321-2.763 3.064v0c-1.471 0.734-2.835 0.852-4.092 0.356-1.26-0.487-2.28-1.512-3.059-3.074v0l-0.659-1.322c-0.764-1.531-0.971-2.95-0.62-4.255 0.35-1.306 1.27-2.33 2.759-3.073v0c1.489-0.743 2.86-0.861 4.114-0.356 1.254 0.505 2.263 1.524 3.027 3.055zM205.513 255.973l-0.66-1.322c-0.521-1.045-1.169-1.751-1.943-2.116-0.765-0.362-1.597-0.319-2.497 0.13v0c-0.881 0.44-1.413 1.077-1.596 1.912-0.18 0.841-0.009 1.784 0.512 2.83v0l0.659 1.322c0.543 1.088 1.201 1.807 1.976 2.156 0.774 0.35 1.602 0.305 2.483-0.134v0c0.899-0.449 1.436-1.084 1.61-1.907 0.18-0.826-0.001-1.783-0.544-2.871z" fill="#d94e28" data-fill-palette-color="primary"></path><path d="M218.704 251.753l1.406 1.059c-0.528 0.888-1.226 1.61-2.095 2.168v0c-0.749 0.481-1.432 0.705-2.049 0.673-0.617-0.032-1.177-0.249-1.679-0.654-0.502-0.404-0.952-0.918-1.352-1.541v0l-3.598-5.607-1.792 1.15-0.957-1.492 1.792-1.15-1.844-2.872 1.698-1.089 1.843 2.872 3.37-2.162 0.957 1.491-3.369 2.163 3.559 5.547c0.462 0.72 0.902 1.136 1.321 1.246 0.416 0.12 0.881 0.015 1.396-0.314v0c0.246-0.158 0.486-0.356 0.719-0.595 0.228-0.235 0.453-0.533 0.674-0.893z" fill="#d94e28" data-fill-palette-color="primary"></path><path d="M238.796 238.003l-1.616 1.418-4.932-5.621-5.505 4.832 4.932 5.62-1.615 1.418-11.068-12.611 1.616-1.418 4.798 5.467 5.505-4.831-4.798-5.467 1.616-1.418z" fill="#d94e28" data-fill-palette-color="primary"></path><path d="M249.703 225.775l-0.246 0.286c-0.493 0.571-1.019 0.915-1.578 1.033-0.56 0.118-1.09 0.077-1.591-0.122v0c0.006 1.073-0.095 1.955-0.305 2.644-0.215 0.685-0.537 1.277-0.968 1.776v0c-0.697 0.807-1.474 1.177-2.331 1.109-0.852-0.063-1.658-0.423-2.419-1.079v0c-0.509-0.439-0.884-0.925-1.125-1.456-0.236-0.527-0.274-1.116-0.115-1.769 0.155-0.647 0.561-1.351 1.217-2.111v0c0.288-0.334 0.626-0.684 1.014-1.05 0.388-0.356 0.79-0.713 1.207-1.07v0l-1.249-1.079c-0.699-0.604-1.308-0.865-1.827-0.783-0.518 0.091-1.03 0.429-1.536 1.015v0c-0.688 0.797-1.24 1.872-1.656 3.227v0l-1.684-0.606c0.231-0.797 0.503-1.518 0.817-2.162 0.319-0.64 0.709-1.227 1.171-1.761v0c0.755-0.874 1.471-1.417 2.148-1.631 0.687-0.214 1.343-0.204 1.967 0.029 0.624 0.234 1.216 0.592 1.776 1.076v0l4.002 3.456c0.283 0.244 0.571 0.394 0.864 0.449 0.283 0.056 0.572-0.085 0.864-0.424v0l0.18-0.208zM241.555 229.897v0c0.422 0.364 0.85 0.559 1.285 0.585 0.435 0.026 0.813-0.146 1.132-0.516v0c0.28-0.324 0.506-0.783 0.679-1.379 0.174-0.586 0.236-1.443 0.187-2.571v0l-1.179-1.018c-0.871 0.728-1.586 1.416-2.146 2.064v0c-0.493 0.571-0.73 1.084-0.711 1.54 0.023 0.451 0.274 0.883 0.753 1.295z" fill="#d94e28" data-fill-palette-color="primary"></path><path d="M246.086 209.31l1.64 1.175c-0.431 0.602-0.743 1.264-0.936 1.987-0.192 0.723-0.217 1.62-0.074 2.692v0l6.939 4.973-1.181 1.648-9.928-7.116 1.122-1.565 1.606 1.151c-0.183-1.167-0.203-2.13-0.06-2.888 0.143-0.758 0.433-1.444 0.872-2.057z" fill="#d94e28" data-fill-palette-color="primary"></path><path d="M263.292 204.47l-0.967 1.665-1.471-0.855c0.244 1.013 0.337 1.861 0.279 2.542-0.064 0.678-0.261 1.301-0.592 1.871v0c-0.652 1.122-1.579 1.737-2.782 1.847-1.203 0.11-2.574-0.282-4.112-1.175v0l-1.242-0.722c-1.492-0.867-2.461-1.929-2.909-3.186-0.448-1.258-0.257-2.6 0.572-4.027v0c0.239-0.411 0.519-0.798 0.84-1.161 0.327-0.36 0.688-0.704 1.083-1.033v0l-5.505-3.198 1.013-1.744zM253.459 207.829l1.242 0.721c1.11 0.645 2.024 0.944 2.742 0.898 0.727-0.049 1.292-0.419 1.695-1.112v0c0.242-0.417 0.389-0.905 0.438-1.465 0.044-0.563-0.065-1.369-0.327-2.418v0l-5.637-3.275c-0.424 0.311-0.785 0.635-1.084 0.973-0.304 0.334-0.563 0.686-0.778 1.056v0c-0.563 0.969-0.674 1.835-0.332 2.599 0.339 0.755 1.02 1.429 2.041 2.023z" fill="#d94e28" data-fill-palette-color="primary"></path><path d="M267.121 190.038l1.789 0.1c0.035 0.822-0.029 1.601-0.193 2.337-0.17 0.733-0.38 1.386-0.628 1.96v0c-0.701 1.613-1.685 2.619-2.954 3.015-1.259 0.394-2.689 0.243-4.29-0.452v0l-1.355-0.588c-1.557-0.676-2.632-1.613-3.222-2.81-0.588-1.203-0.569-2.527 0.059-3.973v0c0.335-0.772 0.795-1.413 1.379-1.922 0.59-0.506 1.279-0.814 2.067-0.924 0.797-0.113 1.684 0.043 2.662 0.467v0c0.635 0.276 1.322 0.681 2.06 1.217v0l-2.901 6.681 0.046 0.02c1.146 0.498 2.116 0.634 2.91 0.409 0.797-0.216 1.426-0.854 1.886-1.913v0c0.208-0.48 0.379-1.035 0.512-1.666 0.13-0.64 0.187-1.292 0.173-1.958zM257.953 190.333v0c-0.379 0.872-0.382 1.656-0.01 2.35 0.375 0.688 1.062 1.279 2.062 1.773v0l2.203-5.074c-0.249-0.16-0.495-0.293-0.738-0.398v0c-0.847-0.368-1.573-0.402-2.177-0.101-0.604 0.3-1.051 0.784-1.34 1.45z" fill="#d94e28" data-fill-palette-color="primary"></path><path d="M261.488 175.165l1.918 0.623c-0.228 0.704-0.325 1.43-0.288 2.177 0.036 0.747 0.285 1.61 0.745 2.587v0l8.121 2.634-0.626 1.929-11.618-3.77 0.594-1.831 1.88 0.61c-0.528-1.057-0.839-1.968-0.934-2.734-0.094-0.766-0.025-1.508 0.208-2.225z" fill="#d94e28" data-fill-palette-color="primary"></path></g></svg></g></svg></g></svg></g><g></g></svg></g><defs></defs></svg><rect width="279.72" height="279.72" fill="none" stroke="none" visibility="hidden"></rect></g></svg></g></svg>
